<mxfile host="Electron" agent="Mozilla/5.0 (Windows NT 10.0; Win64; x64) AppleWebKit/537.36 (KHTML, like Gecko) draw.io/26.0.16 Chrome/132.0.6834.196 Electron/34.2.0 Safari/537.36" version="26.0.16">
  <diagram id="69YpkEtcROimAso4Snp9" name="Page-1">
    <mxGraphModel dx="1050" dy="669" grid="1" gridSize="10" guides="1" tooltips="1" connect="1" arrows="1" fold="1" page="1" pageScale="1" pageWidth="827" pageHeight="1169" math="0" shadow="0">
      <root>
        <mxCell id="0" />
        <mxCell id="1" parent="0" />
        <mxCell id="NKzfZhPAVwFURAYtZ9G2-3" value="" style="edgeStyle=orthogonalEdgeStyle;rounded=0;orthogonalLoop=1;jettySize=auto;html=1;" parent="1" source="NKzfZhPAVwFURAYtZ9G2-1" target="NKzfZhPAVwFURAYtZ9G2-2" edge="1">
          <mxGeometry relative="1" as="geometry" />
        </mxCell>
        <mxCell id="NKzfZhPAVwFURAYtZ9G2-1" value="Beginning" style="ellipse;whiteSpace=wrap;html=1;" parent="1" vertex="1">
          <mxGeometry x="354" y="20" width="120" height="50" as="geometry" />
        </mxCell>
        <mxCell id="NKzfZhPAVwFURAYtZ9G2-5" value="" style="edgeStyle=orthogonalEdgeStyle;rounded=0;orthogonalLoop=1;jettySize=auto;html=1;" parent="1" source="NKzfZhPAVwFURAYtZ9G2-2" target="NKzfZhPAVwFURAYtZ9G2-4" edge="1">
          <mxGeometry relative="1" as="geometry" />
        </mxCell>
        <mxCell id="NKzfZhPAVwFURAYtZ9G2-2" value="Pos_Corps = 0&lt;br&gt;Pos_Lidar = 0" style="whiteSpace=wrap;html=1;" parent="1" vertex="1">
          <mxGeometry x="354" y="120" width="120" height="60" as="geometry" />
        </mxCell>
        <mxCell id="NKzfZhPAVwFURAYtZ9G2-8" value="" style="edgeStyle=orthogonalEdgeStyle;rounded=0;orthogonalLoop=1;jettySize=auto;html=1;" parent="1" source="NKzfZhPAVwFURAYtZ9G2-4" target="NKzfZhPAVwFURAYtZ9G2-6" edge="1">
          <mxGeometry relative="1" as="geometry" />
        </mxCell>
        <mxCell id="NKzfZhPAVwFURAYtZ9G2-4" value="Position Motor Body at&lt;br&gt;Pos_Corps" style="shape=parallelogram;perimeter=parallelogramPerimeter;whiteSpace=wrap;html=1;fixedSize=1;" parent="1" vertex="1">
          <mxGeometry x="319" y="230" width="190" height="60" as="geometry" />
        </mxCell>
        <mxCell id="NKzfZhPAVwFURAYtZ9G2-10" value="" style="edgeStyle=orthogonalEdgeStyle;rounded=0;orthogonalLoop=1;jettySize=auto;html=1;" parent="1" source="NKzfZhPAVwFURAYtZ9G2-6" target="NKzfZhPAVwFURAYtZ9G2-9" edge="1">
          <mxGeometry relative="1" as="geometry" />
        </mxCell>
        <mxCell id="NKzfZhPAVwFURAYtZ9G2-6" value="Position Motor Lidar at&lt;br&gt;Pos_Lidar" style="shape=parallelogram;perimeter=parallelogramPerimeter;whiteSpace=wrap;html=1;fixedSize=1;" parent="1" vertex="1">
          <mxGeometry x="319" y="340" width="190" height="60" as="geometry" />
        </mxCell>
        <mxCell id="NKzfZhPAVwFURAYtZ9G2-12" value="" style="edgeStyle=orthogonalEdgeStyle;rounded=0;orthogonalLoop=1;jettySize=auto;html=1;" parent="1" source="NKzfZhPAVwFURAYtZ9G2-9" target="NKzfZhPAVwFURAYtZ9G2-11" edge="1">
          <mxGeometry relative="1" as="geometry" />
        </mxCell>
        <mxCell id="NKzfZhPAVwFURAYtZ9G2-9" value="Acquire coordinates" style="shape=parallelogram;perimeter=parallelogramPerimeter;whiteSpace=wrap;html=1;fixedSize=1;" parent="1" vertex="1">
          <mxGeometry x="314" y="430" width="200" height="60" as="geometry" />
        </mxCell>
        <mxCell id="NKzfZhPAVwFURAYtZ9G2-14" value="" style="edgeStyle=orthogonalEdgeStyle;rounded=0;orthogonalLoop=1;jettySize=auto;html=1;" parent="1" source="NKzfZhPAVwFURAYtZ9G2-11" target="NKzfZhPAVwFURAYtZ9G2-13" edge="1">
          <mxGeometry relative="1" as="geometry" />
        </mxCell>
        <mxCell id="NKzfZhPAVwFURAYtZ9G2-11" value="Pos_Lidar += 1" style="whiteSpace=wrap;html=1;" parent="1" vertex="1">
          <mxGeometry x="354" y="520" width="120" height="40" as="geometry" />
        </mxCell>
        <mxCell id="NKzfZhPAVwFURAYtZ9G2-16" style="edgeStyle=orthogonalEdgeStyle;rounded=0;orthogonalLoop=1;jettySize=auto;html=1;" parent="1" source="NKzfZhPAVwFURAYtZ9G2-13" edge="1">
          <mxGeometry relative="1" as="geometry">
            <mxPoint x="415" y="310" as="targetPoint" />
            <Array as="points">
              <mxPoint x="300" y="615" />
              <mxPoint x="300" y="310" />
            </Array>
          </mxGeometry>
        </mxCell>
        <mxCell id="NKzfZhPAVwFURAYtZ9G2-20" value="" style="edgeStyle=orthogonalEdgeStyle;rounded=0;orthogonalLoop=1;jettySize=auto;html=1;entryX=0.5;entryY=0;entryDx=0;entryDy=0;" parent="1" source="c2fTAIMJRLaIs8s-1J6V-1" target="Rqln_p62SP4-kZxybZTh-1" edge="1">
          <mxGeometry relative="1" as="geometry" />
        </mxCell>
        <mxCell id="NKzfZhPAVwFURAYtZ9G2-13" value="&lt;font style=&quot;font-size: 12px&quot;&gt;Pos_Lidar&amp;nbsp;≤ 180 ?&lt;/font&gt;" style="rhombus;whiteSpace=wrap;html=1;align=center;" parent="1" vertex="1">
          <mxGeometry x="339" y="585" width="150" height="70" as="geometry" />
        </mxCell>
        <mxCell id="NKzfZhPAVwFURAYtZ9G2-17" value="" style="edgeStyle=orthogonalEdgeStyle;rounded=0;orthogonalLoop=1;jettySize=auto;html=1;" parent="1" source="NKzfZhPAVwFURAYtZ9G2-18" target="NKzfZhPAVwFURAYtZ9G2-19" edge="1">
          <mxGeometry relative="1" as="geometry" />
        </mxCell>
        <mxCell id="NKzfZhPAVwFURAYtZ9G2-18" value="Pos_Corps += 1" style="whiteSpace=wrap;html=1;" parent="1" vertex="1">
          <mxGeometry x="354" y="790" width="120" height="40" as="geometry" />
        </mxCell>
        <mxCell id="NKzfZhPAVwFURAYtZ9G2-22" style="edgeStyle=orthogonalEdgeStyle;rounded=0;orthogonalLoop=1;jettySize=auto;html=1;" parent="1" source="NKzfZhPAVwFURAYtZ9G2-19" edge="1">
          <mxGeometry relative="1" as="geometry">
            <mxPoint x="414" y="200" as="targetPoint" />
            <Array as="points">
              <mxPoint x="270" y="895" />
              <mxPoint x="270" y="200" />
            </Array>
          </mxGeometry>
        </mxCell>
        <mxCell id="NKzfZhPAVwFURAYtZ9G2-26" value="" style="edgeStyle=orthogonalEdgeStyle;rounded=0;orthogonalLoop=1;jettySize=auto;html=1;" parent="1" source="c2fTAIMJRLaIs8s-1J6V-4" edge="1">
          <mxGeometry relative="1" as="geometry">
            <mxPoint x="414" y="90" as="targetPoint" />
            <Array as="points">
              <mxPoint x="414" y="970" />
              <mxPoint x="240" y="970" />
              <mxPoint x="240" y="90" />
            </Array>
          </mxGeometry>
        </mxCell>
        <mxCell id="NKzfZhPAVwFURAYtZ9G2-19" value="&lt;font style=&quot;font-size: 12px&quot;&gt;Pos_Corps&amp;nbsp;≤ 180 ?&lt;/font&gt;" style="rhombus;whiteSpace=wrap;html=1;align=center;" parent="1" vertex="1">
          <mxGeometry x="339" y="860" width="150" height="70" as="geometry" />
        </mxCell>
        <mxCell id="Rqln_p62SP4-kZxybZTh-5" style="edgeStyle=orthogonalEdgeStyle;rounded=0;orthogonalLoop=1;jettySize=auto;html=1;exitX=0.5;exitY=1;exitDx=0;exitDy=0;entryX=0.5;entryY=0;entryDx=0;entryDy=0;" parent="1" source="Rqln_p62SP4-kZxybZTh-1" target="NKzfZhPAVwFURAYtZ9G2-18" edge="1">
          <mxGeometry relative="1" as="geometry" />
        </mxCell>
        <mxCell id="Rqln_p62SP4-kZxybZTh-1" value="Send all coordinates" style="shape=parallelogram;perimeter=parallelogramPerimeter;whiteSpace=wrap;html=1;fixedSize=1;" parent="1" vertex="1">
          <mxGeometry x="314" y="700" width="200" height="60" as="geometry" />
        </mxCell>
        <mxCell id="c2fTAIMJRLaIs8s-1J6V-1" value="" style="ellipse;whiteSpace=wrap;html=1;aspect=fixed;" parent="1" vertex="1">
          <mxGeometry x="407" y="655" width="14" height="14" as="geometry" />
        </mxCell>
        <mxCell id="c2fTAIMJRLaIs8s-1J6V-4" value="" style="ellipse;whiteSpace=wrap;html=1;aspect=fixed;" parent="1" vertex="1">
          <mxGeometry x="407" y="930" width="14" height="14" as="geometry" />
        </mxCell>
      </root>
    </mxGraphModel>
  </diagram>
</mxfile>
